# This file uses meters as units for non-parametric coordinates.

v -530.824463 -0.000000 882.698364
v 887.608154 -0.000000 882.698364
v -530.824463 1122.499756 882.698364
v 887.608154 2026.333618 882.698364
v -530.824463 1122.499634 -882.698425
v 887.608154 2026.333618 -882.698425
v -530.824463 -0.000000 -882.698425
v 887.608154 -0.000000 -882.698425
v 570.453125 -0.000000 882.698364
v 570.453125 2026.333618 882.698364
v 570.453125 2026.333618 -882.698425
v 570.453125 -0.000000 -882.698425
v -887.608032 -0.000000 -882.698425
v -887.608032 -0.000000 882.698364
v -887.608032 1122.499756 882.698364
v -887.608032 1122.499634 -882.698425
v -530.824463 1122.499756 840.948181
v -530.824463 1122.499634 -840.948120
v 570.453125 2026.333618 840.948181
v 570.453125 2026.333618 -840.948120
v 853.100098 2026.333618 840.948181
v 853.100098 2026.333618 -840.948120
v -835.097534 1122.499634 -840.948120
v -835.097534 1122.499756 840.948181
v -530.824463 1089.826782 840.948181
v -530.824463 1089.826660 -840.948120
v 570.453125 1993.660645 840.948181
v 570.453125 1993.660645 -840.948120
v 853.100098 1993.660645 840.948181
v 853.100098 1993.660645 -840.948120
v -835.097534 1089.826660 -840.948120
v -835.097534 1089.826782 840.948181
vt 0.375000 0.000000
vt 0.625000 0.000000
vt 0.375000 0.250000
vt 0.625000 0.250000
vt 0.375000 0.500000
vt 0.625000 0.500000
vt 0.375000 0.750000
vt 0.625000 0.750000
vt 0.875000 0.000000
vt 0.875000 0.250000
vt 0.125000 0.000000
vt 0.125000 0.250000
vt 0.569102 0.000000
vt 0.569102 0.250000
vt 0.569102 0.500000
vt 0.569102 0.750000
vt 0.125000 0.000000
vt 0.375000 0.000000
vt 0.375000 0.250000
vt 0.125000 0.250000
vt 0.375000 0.250000
vt 0.569102 0.250000
vt 0.569102 0.500000
vt 0.375000 0.500000
vt 0.625000 0.250000
vt 0.625000 0.500000
vt 0.125000 0.250000
vt 0.125000 0.250000
vt 0.375000 0.250000
vt 0.375000 0.250000
vt 0.569102 0.250000
vt 0.569102 0.500000
vt 0.375000 0.500000
vt 0.625000 0.250000
vt 0.625000 0.500000
vt 0.125000 0.250000
vt 0.125000 0.250000
vt 0.375000 0.250000
vn 0.000000 0.000000 1.000000
vn 0.000000 0.000000 1.000000
vn 0.000000 0.000000 1.000000
vn 0.000000 0.000000 1.000000
vn 0.000000 0.000000 -1.000000
vn 0.000000 0.000000 -1.000000
vn 0.000000 0.000000 -1.000000
vn 0.000000 0.000000 -1.000000
vn 1.000000 0.000000 0.000000
vn 1.000000 0.000000 0.000000
vn 1.000000 0.000000 0.000000
vn 1.000000 0.000000 0.000000
vn -1.000000 0.000000 0.000000
vn -1.000000 0.000000 0.000000
vn -1.000000 0.000000 0.000000
vn -1.000000 0.000000 0.000000
vn -0.634410 0.772997 0.000000
vn -0.634410 0.772997 0.000000
vn -0.546809 0.837258 0.000000
vn -0.546809 0.837258 0.000000
vn 0.000000 0.000000 1.000000
vn 0.000000 0.000000 1.000000
vn 0.000000 1.000000 0.000000
vn 0.000000 1.000000 0.000000
vn 0.000000 0.000000 -1.000000
vn 0.000000 0.000000 -1.000000
vn 0.000000 0.000000 1.000000
vn 0.000000 0.000000 1.000000
vn 0.000000 1.000000 -0.000000
vn 0.000000 1.000000 -0.000000
vn 0.000000 1.000000 -0.000000
vn 0.000000 1.000000 -0.000000
vn 0.000000 0.000000 -1.000000
vn 0.000000 0.000000 -1.000000
vn -0.634410 0.772997 0.000000
vn -0.634410 0.772997 0.000000
vn -0.634410 0.772997 0.000000
vn -0.634410 0.772997 0.000000
vn -0.634409 0.772997 0.000000
vn -0.634409 0.772997 0.000000
vn -0.634409 0.772997 0.000000
vn -0.634409 0.772997 0.000000
vn 0.000000 1.000000 0.000000
vn 0.000000 1.000000 0.000000
vn 0.000000 1.000000 0.000000
vn 0.000000 1.000000 0.000000
vn 0.000000 1.000000 -0.000000
vn 0.000000 1.000000 -0.000000
vn 0.000000 1.000000 -0.000002
vn 0.000000 1.000000 -0.000002
vn 0.000000 1.000000 0.000002
vn 0.000000 1.000000 0.000000
vn 0.000000 1.000000 0.000000
vn 0.000000 1.000000 0.000002
vn 0.000000 1.000000 -0.000000
vn 0.000000 1.000000 -0.000000
vn 0.000000 1.000000 -0.000001
vn 0.000000 1.000000 -0.000001
vn -0.000001 0.000000 -1.000000
vn -0.000001 0.000000 -1.000000
vn -0.000001 0.000000 -1.000000
vn -0.000001 0.000000 -1.000000
vn 0.000001 0.000000 1.000000
vn 0.000001 0.000000 1.000000
vn 0.000001 0.000000 1.000000
vn 0.000001 0.000000 1.000000
vn 0.000000 0.000000 -1.000000
vn 0.000000 0.000000 -1.000000
vn 0.000000 0.000000 -1.000000
vn 0.000000 0.000000 -1.000000
vn -1.000000 0.000000 0.000000
vn -1.000000 0.000000 0.000000
vn -1.000000 0.000000 0.000000
vn -1.000000 0.000000 0.000000
vn 0.000000 0.000000 1.000000
vn 0.000000 0.000000 1.000000
vn 0.000000 0.000000 1.000000
vn 0.000000 0.000000 1.000000
vn 0.000000 0.000000 1.000000
vn 0.000000 0.000000 1.000000
vn 0.000000 0.000000 1.000000
vn 0.000000 0.000000 1.000000
vn 1.000000 0.000000 0.000000
vn 1.000000 0.000000 0.000000
vn 1.000000 0.000000 0.000000
vn 1.000000 0.000000 0.000000
vn 0.000000 0.000000 -1.000000
vn 0.000000 0.000000 -1.000000
vn 0.000000 0.000000 -1.000000
vn 0.000000 0.000000 -1.000000
f 1/1/1 9/13/2 10/14/3 3/3/4
f 5/5/5 11/15/6 12/16/7 7/7/8
f 2/2/9 8/9/10 6/10/11 4/4/12
f 13/17/13 14/18/14 15/19/15 16/20/16
f 26/33/17 25/30/18 27/31/19 28/32/20
f 9/13/2 2/2/21 4/4/22 10/14/3
f 28/32/20 27/31/19 29/34/23 30/35/24
f 12/16/7 11/15/6 6/6/25 8/8/26
f 1/1/1 3/3/4 15/19/27 14/18/28
f 25/30/29 26/36/30 31/37/31 32/38/32
f 5/12/5 7/11/8 13/17/33 16/20/34
f 3/3/35 10/14/36 19/22/37 17/21/38
f 11/15/39 5/5/40 18/24/41 20/23/42
f 10/14/43 4/4/44 21/25/45 19/22/46
f 4/4/44 6/6/47 22/26/48 21/25/45
f 6/6/47 11/15/49 20/23/50 22/26/48
f 5/12/51 16/20/52 23/28/53 18/27/54
f 16/20/52 15/19/55 24/29/56 23/28/53
f 15/19/55 3/3/57 17/21/58 24/29/56
f 17/21/59 19/22/60 27/31/61 25/30/62
f 20/23/63 18/24/64 26/33/65 28/32/66
f 19/22/67 21/25/68 29/34/69 27/31/70
f 21/25/71 22/26/72 30/35/73 29/34/74
f 22/26/75 20/23/76 28/32/77 30/35/78
f 18/27/79 23/28/80 31/37/81 26/36/82
f 23/28/83 24/29/84 32/38/85 31/37/86
f 24/29/87 17/21/88 25/30/89 32/38/90
