# This file uses meters as units for non-parametric coordinates.

v 56.025391 0.000000 -18.203766
v 47.658203 0.000000 -34.625641
v 34.625488 0.000000 -47.658112
v 18.203613 0.000000 -56.025452
v 0.000000 0.000000 -58.908661
v -18.203613 0.000000 -56.025452
v -34.625488 0.000000 -47.658112
v -47.658203 0.000000 -34.625641
v -56.025391 0.000000 -18.203766
v -58.908691 0.000000 0.000000
v -56.025391 0.000000 18.203766
v -47.658203 0.000000 34.625641
v -34.625488 0.000000 47.658081
v -18.203613 0.000000 56.025421
v 0.000000 0.000000 58.908630
v 18.203613 0.000000 56.025421
v 34.625488 0.000000 47.658081
v 47.658203 0.000000 34.625610
v 56.025391 0.000000 18.203766
v 58.908691 0.000000 0.000000
v 56.025391 1315.399658 -18.203766
v 47.658203 1315.399658 -34.625641
v 34.625488 1315.399658 -47.658112
v 18.203613 1315.399658 -56.025452
v 0.000000 1315.399658 -58.908661
v -18.203613 1315.399658 -56.025452
v -34.625488 1315.399658 -47.658112
v -47.658203 1315.399658 -34.625641
v -56.025391 1315.399658 -18.203766
v -58.908691 1315.399658 0.000000
v -56.025391 1315.399658 18.203766
v -47.658203 1315.399658 34.625641
v -34.625488 1315.399658 47.658081
v -18.203613 1315.399658 56.025421
v 0.000000 1315.399658 58.908630
v 18.203613 1315.399658 56.025421
v 34.625488 1315.399658 47.658081
v 47.658203 1315.399658 34.625610
v 56.025391 1315.399658 18.203766
v 58.908691 1315.399658 0.000000
v -47.658203 1070.429565 34.625641
v -56.025391 1070.429565 18.203766
v -58.908691 1070.429565 0.000000
v -56.025391 1070.429565 -18.203766
v -47.658203 1070.429565 -34.625641
v -34.625488 1070.429565 -47.658112
v -18.203613 1070.429565 -56.025452
v 0.000000 1070.429565 -58.908661
v 18.203613 1070.429565 -56.025452
v 34.625488 1070.429565 -47.658112
v 47.658203 1070.429565 -34.625641
v 56.025391 1070.429565 -18.203766
v 58.908691 1070.429565 0.000000
v 56.025391 1070.429565 18.203766
v 47.658203 1070.429565 34.625610
v 34.625488 1070.429565 47.658081
v 18.203613 1070.429565 56.025421
v 0.000000 1070.429565 58.908630
v -18.203613 1070.429565 56.025421
v -34.625488 1070.429565 47.658081
v -47.658203 244.969971 34.625641
v -56.025391 244.969971 18.203766
v -58.908691 244.969971 0.000000
v -56.025391 244.969971 -18.203766
v -47.658203 244.969971 -34.625641
v -34.625488 244.969971 -47.658112
v -18.203613 244.969971 -56.025452
v 0.000000 244.969971 -58.908661
v 18.203613 244.969971 -56.025452
v 34.625488 244.969971 -47.658112
v 47.658203 244.969971 -34.625641
v 56.025391 244.969971 -18.203766
v 58.908691 244.969971 0.000000
v 56.025391 244.969971 18.203766
v 47.658203 244.969971 34.625610
v 34.625488 244.969971 47.658081
v 18.203613 244.969971 56.025421
v 0.000000 244.969971 58.908630
v -18.203613 244.969971 56.025421
v -34.625488 244.969971 47.658081
v -29.386230 264.673462 21.350189
v -34.544922 264.673462 11.224457
v -29.386230 1050.726074 21.350189
v -34.544922 1050.726074 11.224457
v -36.322754 264.673462 0.000000
v -36.322754 1050.726074 0.000000
v -34.544922 264.673462 -11.224457
v -34.544922 1050.726074 -11.224457
v -29.386230 264.673462 -21.350189
v -29.386230 1050.726074 -21.350189
v -21.350098 264.673462 -29.385925
v -21.350098 1050.726074 -29.385925
v -11.224121 264.673462 -34.545319
v -11.224121 1050.726074 -34.545319
v 0.000000 264.673462 -36.323151
v 0.000000 1050.726074 -36.323151
v 11.224121 264.673462 -34.545319
v 11.224121 1050.726074 -34.545319
v 21.350098 264.673462 -29.385925
v 21.350098 1050.726074 -29.385925
v 29.386230 264.673462 -21.350189
v 29.386230 1050.726074 -21.350189
v 34.544922 264.673462 -11.224457
v 34.544922 1050.726074 -11.224457
v 36.322754 264.673462 0.000000
v 36.322754 1050.726074 0.000000
v 34.544922 264.673462 11.224457
v 34.544922 1050.726074 11.224457
v 29.386230 264.673462 21.350159
v 29.386230 1050.726074 21.350159
v 21.350098 264.673462 29.385925
v 21.350098 1050.726074 29.385925
v 11.224121 264.673462 34.545319
v 11.224121 1050.726074 34.545319
v 0.000000 264.673462 36.323090
v 0.000000 1050.726074 36.323090
v -11.224121 264.673462 34.545288
v -11.224121 1050.726074 34.545288
v -21.350098 264.673462 29.385925
v -21.350098 1050.726074 29.385925
vt 0.375000 0.312500
vt 0.387500 0.312500
vt 0.400000 0.312500
vt 0.412500 0.312500
vt 0.425000 0.312500
vt 0.437500 0.312500
vt 0.450000 0.312500
vt 0.462500 0.312500
vt 0.475000 0.312500
vt 0.487500 0.312500
vt 0.500000 0.312500
vt 0.512500 0.312500
vt 0.525000 0.312500
vt 0.537500 0.312500
vt 0.550000 0.312500
vt 0.562500 0.312500
vt 0.575000 0.312500
vt 0.587500 0.312500
vt 0.600000 0.312500
vt 0.612500 0.312500
vt 0.625000 0.312500
vt 0.375000 0.688440
vt 0.387500 0.688440
vt 0.400000 0.688440
vt 0.412500 0.688440
vt 0.425000 0.688440
vt 0.437500 0.688440
vt 0.450000 0.688440
vt 0.462500 0.688440
vt 0.475000 0.688440
vt 0.487500 0.688440
vt 0.500000 0.688440
vt 0.512500 0.688440
vt 0.525000 0.688440
vt 0.537500 0.688440
vt 0.550000 0.688440
vt 0.562500 0.688440
vt 0.575000 0.688440
vt 0.587500 0.688440
vt 0.600000 0.688440
vt 0.612500 0.688440
vt 0.625000 0.688440
vt 0.512500 0.563127
vt 0.500000 0.563127
vt 0.487500 0.563127
vt 0.475000 0.563127
vt 0.462500 0.563127
vt 0.450000 0.563127
vt 0.437500 0.563127
vt 0.425000 0.563127
vt 0.412500 0.563127
vt 0.400000 0.563127
vt 0.387500 0.563127
vt 0.625000 0.563127
vt 0.375000 0.563127
vt 0.612500 0.563127
vt 0.600000 0.563127
vt 0.587500 0.563127
vt 0.575000 0.563127
vt 0.562500 0.563127
vt 0.550000 0.563127
vt 0.537500 0.563127
vt 0.525000 0.563127
vt 0.512500 0.437813
vt 0.500000 0.437813
vt 0.487500 0.437813
vt 0.475000 0.437813
vt 0.462500 0.437813
vt 0.450000 0.437813
vt 0.437500 0.437813
vt 0.425000 0.437813
vt 0.412500 0.437813
vt 0.400000 0.437813
vt 0.387500 0.437813
vt 0.625000 0.437813
vt 0.375000 0.437813
vt 0.612500 0.437813
vt 0.600000 0.437813
vt 0.587500 0.437813
vt 0.575000 0.437813
vt 0.562500 0.437813
vt 0.550000 0.437813
vt 0.537500 0.437813
vt 0.525000 0.437813
vt 0.500000 0.437813
vt 0.512500 0.437813
vt 0.512500 0.563127
vt 0.500000 0.563127
vt 0.487500 0.437813
vt 0.487500 0.563127
vt 0.475000 0.437813
vt 0.475000 0.563127
vt 0.462500 0.437813
vt 0.462500 0.563127
vt 0.450000 0.437813
vt 0.450000 0.563127
vt 0.437500 0.437813
vt 0.437500 0.563127
vt 0.425000 0.437813
vt 0.425000 0.563127
vt 0.412500 0.437813
vt 0.412500 0.563127
vt 0.400000 0.437813
vt 0.400000 0.563127
vt 0.387500 0.437813
vt 0.387500 0.563127
vt 0.375000 0.437813
vt 0.375000 0.563127
vt 0.612500 0.437813
vt 0.625000 0.437813
vt 0.625000 0.563127
vt 0.612500 0.563127
vt 0.600000 0.437813
vt 0.600000 0.563127
vt 0.587500 0.437813
vt 0.587500 0.563127
vt 0.575000 0.437813
vt 0.575000 0.563127
vt 0.562500 0.437813
vt 0.562500 0.563127
vt 0.550000 0.437813
vt 0.550000 0.563127
vt 0.537500 0.437813
vt 0.537500 0.563127
vt 0.525000 0.437813
vt 0.525000 0.563127
vn 0.951057 0.000000 -0.309015
vn 0.809016 0.000000 -0.587786
vn 0.809016 0.000000 -0.587786
vn 0.951057 0.000000 -0.309015
vn 0.587782 0.000000 -0.809020
vn 0.587782 0.000000 -0.809020
vn 0.309018 0.000000 -0.951056
vn 0.309018 0.000000 -0.951056
vn 0.000000 0.000000 -1.000000
vn 0.000000 0.000000 -1.000000
vn -0.309018 0.000000 -0.951056
vn -0.309018 0.000000 -0.951056
vn -0.587782 0.000000 -0.809020
vn -0.587782 0.000000 -0.809020
vn -0.809016 0.000000 -0.587786
vn -0.809016 0.000000 -0.587786
vn -0.951057 0.000000 -0.309015
vn -0.951057 0.000000 -0.309015
vn -1.000000 0.000000 0.000000
vn -1.000000 0.000000 0.000000
vn -0.951057 0.000000 0.309015
vn -0.951057 0.000000 0.309015
vn -0.809016 0.000000 0.587787
vn -0.809016 0.000000 0.587787
vn -0.587781 0.000000 0.809020
vn -0.587781 0.000000 0.809020
vn -0.309018 0.000000 0.951056
vn -0.309018 0.000000 0.951056
vn 0.000000 0.000000 1.000000
vn 0.000000 0.000000 1.000000
vn 0.309018 0.000000 0.951056
vn 0.309018 0.000000 0.951056
vn 0.587782 0.000000 0.809020
vn 0.587782 0.000000 0.809020
vn 0.809016 0.000000 0.587787
vn 0.809016 0.000000 0.587787
vn 0.951057 0.000000 0.309016
vn 0.951057 0.000000 0.309016
vn 1.000000 0.000000 0.000000
vn 1.000000 0.000000 0.000000
vn -0.951057 0.000000 0.309015
vn -0.809016 0.000000 0.587787
vn -0.809016 0.000000 0.587787
vn -0.951057 0.000000 0.309015
vn -1.000000 0.000000 0.000000
vn -1.000000 0.000000 0.000000
vn -0.951057 0.000000 -0.309015
vn -0.951057 0.000000 -0.309015
vn -0.809016 0.000000 -0.587786
vn -0.809016 0.000000 -0.587786
vn -0.587782 0.000000 -0.809020
vn -0.587782 0.000000 -0.809020
vn -0.309018 0.000000 -0.951056
vn -0.309018 0.000000 -0.951056
vn 0.000000 0.000000 -1.000000
vn 0.000000 0.000000 -1.000000
vn 0.309018 0.000000 -0.951056
vn 0.309018 0.000000 -0.951056
vn 0.587782 0.000000 -0.809020
vn 0.587782 0.000000 -0.809020
vn 0.809016 0.000000 -0.587786
vn 0.809016 0.000000 -0.587786
vn 0.951057 0.000000 -0.309015
vn 0.951057 0.000000 -0.309015
vn 1.000000 0.000000 0.000000
vn 1.000000 0.000000 0.000000
vn 0.951057 0.000000 0.309016
vn 0.951057 0.000000 0.309016
vn 0.809016 0.000000 0.587787
vn 0.809016 0.000000 0.587787
vn 0.587782 0.000000 0.809020
vn 0.587782 0.000000 0.809020
vn 0.309018 0.000000 0.951056
vn 0.309018 0.000000 0.951056
vn 0.000000 0.000000 1.000000
vn 0.000000 0.000000 1.000000
vn -0.309018 0.000000 0.951056
vn -0.309018 0.000000 0.951056
vn -0.587781 0.000000 0.809020
vn -0.587781 0.000000 0.809020
vn -0.951064 0.000000 0.308994
vn -0.809022 0.000000 0.587778
vn -0.809022 0.000000 0.587778
vn -0.951064 0.000000 0.308994
vn -1.000000 0.000000 0.000000
vn -1.000000 0.000000 0.000000
vn -0.951064 0.000000 -0.308994
vn -0.951064 0.000000 -0.308994
vn -0.809022 0.000000 -0.587778
vn -0.809022 0.000000 -0.587778
vn -0.587773 0.000000 -0.809026
vn -0.587773 0.000000 -0.809026
vn -0.309023 0.000000 -0.951055
vn -0.309023 0.000000 -0.951055
vn 0.000000 0.000000 -1.000000
vn 0.000000 0.000000 -1.000000
vn 0.309023 0.000000 -0.951055
vn 0.309023 0.000000 -0.951055
vn 0.587773 0.000000 -0.809026
vn 0.587773 0.000000 -0.809026
vn 0.809022 0.000000 -0.587778
vn 0.809022 0.000000 -0.587778
vn 0.951064 0.000000 -0.308994
vn 0.951064 0.000000 -0.308994
vn 1.000000 0.000000 0.000000
vn 1.000000 0.000000 0.000000
vn 0.951064 0.000000 0.308994
vn 0.951064 0.000000 0.308994
vn 0.809022 0.000000 0.587778
vn 0.809022 0.000000 0.587778
vn 0.587774 0.000000 0.809025
vn 0.587774 0.000000 0.809025
vn 0.309021 0.000000 0.951055
vn 0.309021 0.000000 0.951055
vn -0.000001 0.000000 1.000000
vn -0.000001 0.000000 1.000000
vn -0.309021 0.000000 0.951055
vn -0.309021 0.000000 0.951055
vn -0.587772 0.000000 0.809026
vn -0.587772 0.000000 0.809026
vn -0.625216 0.753552 0.203138
vn -0.531840 0.753550 0.386403
vn -0.531841 0.753550 0.386403
vn -0.625216 0.753552 0.203137
vn -0.531841 -0.753551 0.386402
vn -0.625216 -0.753552 0.203138
vn -0.625216 -0.753552 0.203137
vn -0.531841 -0.753551 0.386401
vn -0.657385 0.753555 0.000000
vn -0.657385 0.753555 0.000000
vn -0.657385 -0.753555 0.000000
vn -0.657385 -0.753555 0.000000
vn -0.625216 0.753552 -0.203138
vn -0.625216 0.753552 -0.203137
vn -0.625216 -0.753551 -0.203140
vn -0.625216 -0.753551 -0.203139
vn -0.531841 0.753551 -0.386403
vn -0.531841 0.753551 -0.386402
vn -0.531841 -0.753551 -0.386403
vn -0.531841 -0.753551 -0.386402
vn -0.386401 0.753549 -0.531844
vn -0.386400 0.753549 -0.531845
vn -0.386401 -0.753550 -0.531843
vn -0.386401 -0.753550 -0.531844
vn -0.203147 0.753549 -0.625216
vn -0.203147 0.753549 -0.625216
vn -0.203148 -0.753550 -0.625215
vn -0.203147 -0.753550 -0.625215
vn 0.000000 0.753549 -0.657392
vn 0.000000 0.753549 -0.657392
vn 0.000000 -0.753550 -0.657391
vn 0.000000 -0.753550 -0.657391
vn 0.203147 0.753549 -0.625216
vn 0.203147 0.753549 -0.625216
vn 0.203148 -0.753550 -0.625215
vn 0.203147 -0.753550 -0.625215
vn 0.386401 0.753549 -0.531844
vn 0.386400 0.753549 -0.531845
vn 0.386401 -0.753549 -0.531844
vn 0.386400 -0.753549 -0.531844
vn 0.531840 0.753550 -0.386403
vn 0.531841 0.753551 -0.386403
vn 0.531841 -0.753551 -0.386402
vn 0.531841 -0.753551 -0.386401
vn 0.625216 0.753552 -0.203138
vn 0.625216 0.753552 -0.203137
vn 0.625216 -0.753552 -0.203138
vn 0.625216 -0.753552 -0.203137
vn 0.657385 0.753555 0.000000
vn 0.657385 0.753555 0.000000
vn 0.657385 -0.753555 0.000000
vn 0.657385 -0.753555 0.000000
vn 0.625216 0.753552 0.203138
vn 0.625216 0.753552 0.203137
vn 0.625216 -0.753551 0.203140
vn 0.625216 -0.753551 0.203139
vn 0.531840 0.753550 0.386403
vn 0.531841 0.753551 0.386403
vn 0.531840 -0.753551 0.386403
vn 0.531841 -0.753551 0.386402
vn 0.386401 0.753549 0.531844
vn 0.386401 0.753549 0.531845
vn 0.386401 -0.753549 0.531843
vn 0.386401 -0.753549 0.531844
vn 0.203147 0.753549 0.625216
vn 0.203146 0.753549 0.625216
vn 0.203147 -0.753550 0.625215
vn 0.203146 -0.753550 0.625215
vn -0.000000 0.753549 0.657392
vn -0.000000 0.753549 0.657392
vn -0.000000 -0.753550 0.657391
vn -0.000000 -0.753550 0.657391
vn -0.203147 0.753549 0.625216
vn -0.203146 0.753549 0.625216
vn -0.203147 -0.753550 0.625215
vn -0.203146 -0.753550 0.625215
vn -0.386400 0.753549 0.531845
vn -0.386400 0.753549 0.531845
vn -0.386400 -0.753549 0.531845
vn -0.386400 -0.753549 0.531845
f 1/1/1 2/2/2 71/74/3 72/76/4
f 2/2/2 3/3/5 70/73/6 71/74/3
f 3/3/5 4/4/7 69/72/8 70/73/6
f 4/4/7 5/5/9 68/71/10 69/72/8
f 5/5/9 6/6/11 67/70/12 68/71/10
f 6/6/11 7/7/13 66/69/14 67/70/12
f 7/7/13 8/8/15 65/68/16 66/69/14
f 8/8/15 9/9/17 64/67/18 65/68/16
f 9/9/17 10/10/19 63/66/20 64/67/18
f 10/10/19 11/11/21 62/65/22 63/66/20
f 11/11/21 12/12/23 61/64/24 62/65/22
f 12/12/23 13/13/25 80/84/26 61/64/24
f 13/13/25 14/14/27 79/83/28 80/84/26
f 14/14/27 15/15/29 78/82/30 79/83/28
f 15/15/29 16/16/31 77/81/32 78/82/30
f 16/16/31 17/17/33 76/80/34 77/81/32
f 17/17/33 18/18/35 75/79/36 76/80/34
f 18/18/35 19/19/37 74/78/38 75/79/36
f 19/19/37 20/20/39 73/77/40 74/78/38
f 20/20/39 1/21/1 72/75/4 73/77/40
f 42/44/41 41/43/42 32/33/43 31/32/44
f 43/45/45 42/44/41 31/32/44 30/31/46
f 44/46/47 43/45/45 30/31/46 29/30/48
f 45/47/49 44/46/47 29/30/48 28/29/50
f 46/48/51 45/47/49 28/29/50 27/28/52
f 47/49/53 46/48/51 27/28/52 26/27/54
f 48/50/55 47/49/53 26/27/54 25/26/56
f 49/51/57 48/50/55 25/26/56 24/25/58
f 50/52/59 49/51/57 24/25/58 23/24/60
f 51/53/61 50/52/59 23/24/60 22/23/62
f 52/55/63 51/53/61 22/23/62 21/22/64
f 53/56/65 52/54/63 21/42/64 40/41/66
f 54/57/67 53/56/65 40/41/66 39/40/68
f 55/58/69 54/57/67 39/40/68 38/39/70
f 56/59/71 55/58/69 38/39/70 37/38/72
f 57/60/73 56/59/71 37/38/72 36/37/74
f 58/61/75 57/60/73 36/37/74 35/36/76
f 59/62/77 58/61/75 35/36/76 34/35/78
f 60/63/79 59/62/77 34/35/78 33/34/80
f 41/43/42 60/63/79 33/34/80 32/33/43
f 82/85/81 81/86/82 83/87/83 84/88/84
f 85/89/85 82/85/81 84/88/84 86/90/86
f 87/91/87 85/89/85 86/90/86 88/92/88
f 89/93/89 87/91/87 88/92/88 90/94/90
f 91/95/91 89/93/89 90/94/90 92/96/92
f 93/97/93 91/95/91 92/96/92 94/98/94
f 95/99/95 93/97/93 94/98/94 96/100/96
f 97/101/97 95/99/95 96/100/96 98/102/98
f 99/103/99 97/101/97 98/102/98 100/104/100
f 101/105/101 99/103/99 100/104/100 102/106/102
f 103/107/103 101/105/101 102/106/102 104/108/104
f 105/109/105 103/110/103 104/111/104 106/112/106
f 107/113/107 105/109/105 106/112/106 108/114/108
f 109/115/109 107/113/107 108/114/108 110/116/110
f 111/117/111 109/115/109 110/116/110 112/118/112
f 113/119/113 111/117/111 112/118/112 114/120/114
f 115/121/115 113/119/113 114/120/114 116/122/116
f 117/123/117 115/121/115 116/122/116 118/124/118
f 119/125/119 117/123/117 118/124/118 120/126/120
f 81/86/82 119/125/119 120/126/120 83/87/83
f 62/65/121 61/64/122 81/86/123 82/85/124
f 41/43/125 42/44/126 84/88/127 83/87/128
f 63/66/129 62/65/121 82/85/124 85/89/130
f 42/44/126 43/45/131 86/90/132 84/88/127
f 64/67/133 63/66/129 85/89/130 87/91/134
f 43/45/131 44/46/135 88/92/136 86/90/132
f 65/68/137 64/67/133 87/91/134 89/93/138
f 44/46/135 45/47/139 90/94/140 88/92/136
f 66/69/141 65/68/137 89/93/138 91/95/142
f 45/47/139 46/48/143 92/96/144 90/94/140
f 67/70/145 66/69/141 91/95/142 93/97/146
f 46/48/143 47/49/147 94/98/148 92/96/144
f 68/71/149 67/70/145 93/97/146 95/99/150
f 47/49/147 48/50/151 96/100/152 94/98/148
f 69/72/153 68/71/149 95/99/150 97/101/154
f 48/50/151 49/51/155 98/102/156 96/100/152
f 70/73/157 69/72/153 97/101/154 99/103/158
f 49/51/155 50/52/159 100/104/160 98/102/156
f 71/74/161 70/73/157 99/103/158 101/105/162
f 50/52/159 51/53/163 102/106/164 100/104/160
f 72/76/165 71/74/161 101/105/162 103/107/166
f 51/53/163 52/55/167 104/108/168 102/106/164
f 73/77/169 72/75/165 103/110/166 105/109/170
f 52/54/167 53/56/171 106/112/172 104/111/168
f 74/78/173 73/77/169 105/109/170 107/113/174
f 53/56/171 54/57/175 108/114/176 106/112/172
f 75/79/177 74/78/173 107/113/174 109/115/178
f 54/57/175 55/58/179 110/116/180 108/114/176
f 76/80/181 75/79/177 109/115/178 111/117/182
f 55/58/179 56/59/183 112/118/184 110/116/180
f 77/81/185 76/80/181 111/117/182 113/119/186
f 56/59/183 57/60/187 114/120/188 112/118/184
f 78/82/189 77/81/185 113/119/186 115/121/190
f 57/60/187 58/61/191 116/122/192 114/120/188
f 79/83/193 78/82/189 115/121/190 117/123/194
f 58/61/191 59/62/195 118/124/196 116/122/192
f 80/84/197 79/83/193 117/123/194 119/125/198
f 59/62/195 60/63/199 120/126/200 118/124/196
f 61/64/122 80/84/197 119/125/198 81/86/123
f 60/63/199 41/43/125 83/87/128 120/126/200
